HIERARCHY
ROOT Hips
{
	OFFSET -0.001795 -0.223333 0.028219
	CHANNELS 6 Xposition Yposition Zposition Zrotation Yrotation Xrotation 
	JOINT LeftUpLeg
	{
		OFFSET 0.069520 -0.091406 -0.006815
		CHANNELS 3 Zrotation Yrotation Xrotation
		JOINT LeftLeg
		{
			OFFSET 0.034277 -0.375199 -0.004496
			CHANNELS 3 Zrotation Yrotation Xrotation
			JOINT LeftFoot
			{
				OFFSET -0.013596 -0.397961 -0.043693
				CHANNELS 3 Zrotation Yrotation Xrotation
				JOINT LeftToe
				{
					OFFSET 0.026358 -0.055791 0.119288
					CHANNELS 3 Zrotation Yrotation Xrotation
					End Site
					{
						OFFSET 0.000000 0.000000 0.000000
					}
				}
			}
		}
	}
	JOINT RightUpLeg
	{
		OFFSET -0.067670 -0.090522 -0.004320
		CHANNELS 3 Zrotation Yrotation Xrotation
		JOINT RightLeg
		{
			OFFSET -0.038290 -0.382569 -0.008850
			CHANNELS 3 Zrotation Yrotation Xrotation
			JOINT RightFoot
			{
				OFFSET 0.015774 -0.398415 -0.042312
				CHANNELS 3 Zrotation Yrotation Xrotation
				JOINT RightToe
				{
					OFFSET -0.025372 -0.048144 0.123348
					CHANNELS 3 Zrotation Yrotation Xrotation
					End Site
					{
						OFFSET 0.000000 0.000000 0.000000
					}
				}
			}
		}
	}
	JOINT Spine
	{
		OFFSET -0.002533 0.108963 -0.026696
		CHANNELS 3 Zrotation Yrotation Xrotation
		JOINT Spine1
		{
			OFFSET 0.005487 0.135180 0.001092
			CHANNELS 3 Zrotation Yrotation Xrotation
			JOINT Spine2
			{
				OFFSET 0.001457 0.052922 0.025425
				CHANNELS 3 Zrotation Yrotation Xrotation
				JOINT Neck
				{
					OFFSET -0.002778 0.213870 -0.042857
					CHANNELS 3 Zrotation Yrotation Xrotation
					JOINT Head
					{
						OFFSET 0.005152 0.064970 0.051349
						CHANNELS 3 Zrotation Yrotation Xrotation
						End Site
						{
							OFFSET 0.000000 0.000000 0.000000
						}
					}
				}
				JOINT LeftShoulder
				{
					OFFSET 0.078845 0.121749 -0.034090
					CHANNELS 3 Zrotation Yrotation Xrotation
					JOINT LeftArm
					{
						OFFSET 0.090977 0.030469 -0.008868
						CHANNELS 3 Zrotation Yrotation Xrotation
						JOINT LeftForeArm
						{
							OFFSET 0.259612 -0.012772 -0.027456
							CHANNELS 3 Zrotation Yrotation Xrotation
							JOINT LeftHand
							{
								OFFSET 0.249234 0.008986 -0.001171
								CHANNELS 3 Zrotation Yrotation Xrotation
								End Site
								{
									OFFSET 0.000000 0.000000 0.000000
								}
							}
						}
					}
				}
				JOINT RightShoulder
				{
					OFFSET -0.081759 0.118833 -0.038615
					CHANNELS 3 Zrotation Yrotation Xrotation
					JOINT RightArm
					{
						OFFSET -0.096012 0.032551 -0.009143
						CHANNELS 3 Zrotation Yrotation Xrotation
						JOINT RightForeArm
						{
							OFFSET -0.253742 -0.013329 -0.021401
							CHANNELS 3 Zrotation Yrotation Xrotation
							JOINT RightHand
							{
								OFFSET -0.255298 0.007772 -0.005559
								CHANNELS 3 Zrotation Yrotation Xrotation
								End Site
								{
									OFFSET 0.000000 0.000000 0.000000
								}
							}
						}
					}
				}
			}
		}
	}
}
MOTION
Frames: 16
Frame Time: 0.050000
0.000000 0.908273 0.000000 -1.165090 1.422358 2.487628 6.881864 -0.942362 -23.705102 -3.228535 0.045345 28.869716 -3.387819 1.781133 18.519618 0.000000 0.000000 0.000000 -3.088140 2.012155 -27.385873 2.254930 0.251427 33.014916 -7.756555 -19.204247 11.685981 0.000000 0.000000 0.000000 -0.275058 -0.996771 23.437528 0.050012 0.076888 -3.183693 0.644781 0.589571 15.478414 1.128052 -0.440269 -5.222599 0.000000 0.000000 0.000000 1.184950 -6.016784 2.085541 -26.823958 -23.415521 0.626315 126.378546 -52.582181 -83.222096 0.000000 0.000000 0.000000 -12.179453 5.066772 1.733577 27.728571 19.569267 0.590200 -112.466219 49.111637 -61.355277 0.000000 0.000000 0.000000 
-0.002478 0.906011 -0.001252 -1.569098 0.832771 2.749641 8.344059 -0.642503 -24.122392 -4.575054 0.614654 29.109801 -3.095177 1.987317 18.132241 0.000000 0.000000 0.000000 -2.427012 2.242513 -27.950345 2.029323 0.434326 33.865769 -7.007489 -17.841738 9.690397 0.000000 0.000000 0.000000 -0.298423 -0.956790 23.266424 -0.681180 0.388070 -2.913943 1.791719 1.080936 16.165569 0.276760 -0.092301 -1.275433 0.000000 0.000000 0.000000 -0.936354 -3.919212 1.308591 -25.253063 -23.288465 0.399246 126.390405 -51.307201 -81.699557 0.000000 0.000000 0.000000 -11.927086 3.026947 1.209274 26.586161 19.478063 0.403475 -115.969581 53.158827 -69.689271 0.000000 0.000000 0.000000 
-0.004493 0.902958 -0.002536 -1.135188 1.971357 2.322659 7.786057 -0.832130 -24.512041 -4.306466 0.383760 30.077139 -3.461555 1.429957 17.705814 0.000000 0.000000 0.000000 -3.606607 1.905158 -28.153149 3.352342 -0.281583 34.768911 -7.734101 -19.099338 10.158848 0.000000 0.000000 0.000000 0.539075 -1.245800 24.112701 -0.328634 0.281030 -4.323692 0.125220 0.716604 18.041216 1.270708 -0.828679 -2.424936 0.000000 0.000000 0.000000 -1.648715 -4.151810 1.362339 -23.112518 -23.787007 0.180224 122.346593 -49.240373 -74.750117 0.000000 0.000000 0.000000 -10.542958 2.376714 0.931566 23.717478 18.199887 -0.136576 -120.197323 52.407145 -72.901944 0.000000 0.000000 0.000000 
-0.006446 0.900131 -0.003801 -1.095804 1.719817 2.145675 7.731960 -0.861816 -25.706034 -4.084871 0.307939 32.353678 -3.442168 1.700677 18.447170 0.000000 0.000000 0.000000 -3.816064 1.926134 -29.006772 3.784417 -0.442562 36.362406 -7.517824 -18.715390 9.991666 0.000000 0.000000 0.000000 0.269772 -1.156466 23.880610 -0.867809 0.485373 -3.203066 0.092381 -0.060406 18.467621 0.326987 -0.139597 -1.682376 0.000000 0.000000 0.000000 -0.571270 -2.428032 0.815735 -22.851842 -23.567786 0.113067 120.647847 -47.986629 -70.831430 0.000000 0.000000 0.000000 -10.774153 0.271242 0.511444 22.344485 19.215861 -0.066419 -118.690913 55.100185 -75.705220 0.000000 0.000000 0.000000 
-0.008039 0.897781 -0.004909 -0.929803 1.781286 1.514767 7.319191 -0.953962 -25.974062 -3.591404 0.071121 33.855964 -3.494752 1.731197 18.708339 0.000000 0.000000 0.000000 -4.091405 1.849347 -28.984733 4.273826 -0.675736 36.737376 -8.194752 -19.939625 11.145385 0.000000 0.000000 0.000000 0.094094 -1.179526 25.078266 -1.237960 0.659290 -3.620841 -0.170925 -0.688136 18.763378 -0.415659 0.434286 -1.153238 0.000000 0.000000 0.000000 -0.743642 -2.266078 0.760974 -21.353565 -23.746276 0.001719 120.391391 -47.042672 -69.104157 0.000000 0.000000 0.000000 -11.617054 0.340353 0.620766 21.416137 18.164759 -0.268818 -123.407245 55.313722 -81.808907 0.000000 0.000000 0.000000 
-0.009291 0.895735 -0.005789 -0.821962 1.895765 1.306569 7.265510 -0.984207 -26.320473 -3.588888 0.040598 34.697160 -3.518983 1.703638 18.696720 0.000000 0.000000 0.000000 -4.075742 1.887280 -29.788846 3.942969 -0.552781 38.165325 -8.032229 -19.625403 12.140775 0.000000 0.000000 0.000000 -0.140342 -1.143167 25.330042 -1.120184 0.611858 -3.749951 -0.395219 -1.063978 19.333423 -0.440409 0.433268 -1.095084 0.000000 0.000000 0.000000 -0.074951 -2.473033 0.859626 -20.724265 -23.665555 -0.077698 121.196321 -47.373866 -70.235338 0.000000 0.000000 0.000000 -13.151711 -0.277951 0.565961 19.682648 17.307697 -0.455488 -127.887737 55.243919 -87.409173 0.000000 0.000000 0.000000 
-0.010462 0.893210 -0.006072 -0.600772 1.899173 1.023659 7.259651 -0.980197 -26.255235 -3.855932 0.148403 35.119158 -3.406609 1.672797 18.169174 0.000000 0.000000 0.000000 -4.301547 1.847191 -30.120168 4.269703 -0.717626 39.223882 -8.403602 -20.280614 11.913961 0.000000 0.000000 0.000000 -0.282547 -1.120799 25.606354 -1.443799 0.752401 -3.627554 -1.052948 -1.917776 18.956110 -0.819210 0.713584 -0.936327 0.000000 0.000000 0.000000 0.552139 -3.090056 1.088285 -18.928191 -23.974128 -0.150688 124.096232 -49.335178 -75.551636 0.000000 0.000000 0.000000 -14.186902 -0.386783 0.721864 17.133910 16.323332 -0.614314 -132.433178 54.898390 -93.630119 0.000000 0.000000 0.000000 
-0.011719 0.890802 -0.005902 -0.644053 1.618548 0.473586 7.602386 -0.875727 -26.147638 -4.192895 0.322656 36.071978 -3.306901 1.757862 18.087674 0.000000 0.000000 0.000000 -4.019348 1.948074 -30.277942 4.251650 -0.672850 40.825321 -8.282091 -20.095398 11.029327 0.000000 0.000000 0.000000 -0.270933 -1.102657 25.529671 -1.595126 0.810517 -3.117308 -1.728853 -2.387675 18.642063 -1.287796 1.086029 -0.562981 0.000000 0.000000 0.000000 1.748592 -4.520172 1.567493 -17.403117 -24.778942 -0.147785 126.812552 -51.902960 -81.722814 0.000000 0.000000 0.000000 -16.050837 -0.299340 0.941351 14.863337 14.758219 -0.750806 -134.880566 53.782425 -96.186724 0.000000 0.000000 0.000000 
-0.013278 0.887405 -0.005054 -0.555992 1.650042 -0.043998 7.624990 -0.862018 -26.010801 -4.238657 0.325710 36.950458 -3.194229 1.693565 17.448416 0.000000 0.000000 0.000000 -3.902792 1.973451 -30.316893 4.656615 -0.898433 42.147856 -9.078298 -21.547319 10.207223 0.000000 0.000000 0.000000 -0.615359 -1.024867 25.586401 -1.692958 0.857830 -3.223951 -2.303442 -3.282375 18.759620 -2.298214 1.943136 -0.414083 0.000000 0.000000 0.000000 3.159696 -5.823626 1.943022 -15.539905 -25.303216 -0.237171 129.693045 -54.115778 -87.531238 0.000000 0.000000 0.000000 -17.449206 -0.141213 1.191596 12.306544 14.569512 -0.786805 -134.849032 52.978113 -96.145504 0.000000 0.000000 0.000000 
-0.014859 0.884645 -0.003522 -0.483542 1.222872 -0.632350 8.055772 -0.721878 -25.718464 -4.843795 0.663586 37.869254 -3.052741 1.822701 17.348679 0.000000 0.000000 0.000000 -3.622594 2.064105 -30.107549 4.871665 -0.934497 43.039839 -9.693473 -22.724492 9.510986 0.000000 0.000000 0.000000 -1.081631 -0.879750 25.392662 -1.966251 0.972261 -2.556604 -2.495769 -3.608439 17.969107 -3.378702 2.885018 0.119417 0.000000 0.000000 0.000000 5.167781 -7.477802 2.351068 -14.403092 -25.959112 -0.219164 130.921552 -55.116469 -89.916905 0.000000 0.000000 0.000000 -19.321714 0.520587 1.548530 10.614343 14.209008 -0.784619 -133.935060 52.886733 -95.466162 0.000000 0.000000 0.000000 
-0.016183 0.881916 -0.001617 -0.644364 0.752435 -1.442323 8.445580 -0.578277 -25.131341 -4.990962 0.802504 38.806427 -2.865275 1.931644 16.998170 0.000000 0.000000 0.000000 -3.097968 2.188288 -29.515955 4.821341 -0.817837 43.781377 -9.848557 -23.077762 8.674905 0.000000 0.000000 0.000000 -1.482862 -0.765140 25.468834 -2.133640 1.045889 -2.203964 -2.710354 -4.055866 17.437216 -4.064983 3.485880 0.577927 0.000000 0.000000 0.000000 7.240915 -9.209648 2.683971 -13.233011 -25.838373 -0.263482 130.323861 -56.121974 -90.035550 0.000000 0.000000 0.000000 -20.620620 1.494950 1.927423 9.233420 14.596584 -0.774849 -131.013226 53.674216 -93.414487 0.000000 0.000000 0.000000 
-0.017080 0.881112 0.000360 -0.619529 0.214070 -2.063616 8.358604 -0.531680 -24.360221 -4.742588 0.772170 39.124462 -2.649553 2.146574 16.842448 0.000000 0.000000 0.000000 -2.681408 2.266539 -28.696885 4.479213 -0.516854 43.659762 -9.915015 -23.257389 8.152579 0.000000 0.000000 0.000000 -1.861479 -0.631640 24.908089 -2.424279 1.177330 -1.334995 -2.955952 -4.354432 16.583270 -5.002269 4.322025 0.822907 0.000000 0.000000 0.000000 9.050494 -10.244079 2.787745 -12.458665 -25.787162 -0.269463 130.264188 -57.328366 -91.042092 0.000000 0.000000 0.000000 -21.300304 2.448730 2.248640 8.868907 15.618530 -0.753068 -131.272214 54.817529 -95.697470 0.000000 0.000000 0.000000 
-0.017627 0.881542 0.002196 -0.689210 0.023065 -2.571551 8.408931 -0.484184 -23.526257 -4.621714 0.737093 38.967329 -2.606020 2.152362 16.714795 0.000000 0.000000 0.000000 -2.491819 2.265317 -27.984433 4.450806 -0.460558 43.555266 -9.882493 -23.197886 8.094589 0.000000 0.000000 0.000000 -2.266334 -0.527463 24.642113 -2.323743 1.130830 -0.914455 -2.924489 -4.391770 16.186435 -5.444058 4.716432 0.866604 0.000000 0.000000 0.000000 10.728785 -11.133800 2.854148 -11.873577 -24.833990 -0.333716 128.427699 -58.362384 -90.002023 0.000000 0.000000 0.000000 -22.025511 3.525411 2.476344 8.949916 16.469416 -0.732318 -129.769235 56.808522 -96.384867 0.000000 0.000000 0.000000 
-0.018055 0.883123 0.003722 -0.755652 -0.484053 -2.959027 8.515246 -0.409471 -22.702866 -4.569197 0.791764 38.642527 -2.525819 2.334301 17.030650 0.000000 0.000000 0.000000 -2.032673 2.338495 -27.226012 3.568113 0.101720 42.913190 -9.188070 -21.900581 8.401954 0.000000 0.000000 0.000000 -2.488564 -0.439644 23.890463 -2.605188 1.266894 -0.033331 -2.917747 -4.311929 15.407702 -6.287345 5.447005 0.540883 0.000000 0.000000 0.000000 12.147809 -11.038318 2.704441 -11.105967 -24.625582 -0.360839 123.854969 -59.934653 -86.479117 0.000000 0.000000 0.000000 -21.825827 4.553410 2.671634 9.209980 17.866491 -0.691713 -128.766930 59.701161 -98.690832 0.000000 0.000000 0.000000 
-0.018442 0.884321 0.004784 -0.906738 -0.824468 -2.906790 8.552302 -0.379697 -22.568955 -4.287185 0.713569 38.559075 -2.461077 2.509432 17.363214 0.000000 0.000000 0.000000 -1.735791 2.409373 -27.030640 2.503134 0.700106 42.182344 -7.866838 -19.447346 9.204711 0.000000 0.000000 0.000000 -2.755107 -0.355428 23.130590 -2.607641 1.268710 0.297141 -2.594711 -3.713492 15.051385 -6.426185 5.578885 0.660675 0.000000 0.000000 0.000000 12.502411 -11.103826 2.745124 -9.736695 -24.446636 -0.484991 120.637864 -60.397126 -83.806342 0.000000 0.000000 0.000000 -21.183698 5.399950 2.697486 10.006561 18.478307 -0.625954 -130.998726 62.101299 -103.821134 0.000000 0.000000 0.000000 
-0.018743 0.884297 0.005629 -1.132635 -0.796846 -2.827031 8.599095 -0.371564 -22.415361 -3.935311 0.535968 38.304264 -2.365525 2.470898 16.822504 0.000000 0.000000 0.000000 -1.439298 2.457397 -26.859756 1.173181 1.339367 41.442127 -6.153082 -16.279418 9.972743 0.000000 0.000000 0.000000 -2.912916 -0.319709 22.649435 -2.497171 1.213532 0.053002 -2.468680 -3.389691 15.143118 -6.446842 5.618134 0.873209 0.000000 0.000000 0.000000 12.851862 -11.250278 2.782955 -8.986543 -24.664695 -0.546665 117.572702 -60.879624 -81.314494 0.000000 0.000000 0.000000 -20.358357 6.337996 2.742632 10.769611 18.554335 -0.577253 -133.266439 63.009484 -107.372719 0.000000 0.000000 0.000000 
